# xmcd
#
# Track frame offsets: 
#        150
#        13647
#        32482
#        42802
#        51912
#        65202
#        78285
#        93597
#        106535
#        119907
#        134820
#        146225
#
# Disc length: 2149 seconds
#
# Revision: 4
# Processed by: cddbd v1.5.2PL0 Copyright (c) Steve Scherf et al.
# Submitted via: ExactAudioCopyFreeDBPlugin 1.0
#
DISCID=ad08630c
DTITLE=Fleetwood Mac - Peter Green's Fleetwood Mac
DYEAR=1968
DGENRE=Blues
TTITLE0=My Heart Beat Like a Hammer
TTITLE1=Merry-Go-Round
TTITLE2=Long Grey Mare
TTITLE3=Hellbound on My Trail
TTITLE4=Shake Your Moneymaker
TTITLE5=Looking for Somebody
TTITLE6=No Place to Go
TTITLE7=My Baby's Good to Me
TTITLE8=I Loved Another Woman
TTITLE9=Cold Black Night
TTITLE10=The World Keep on Turning
TTITLE11=Got to Move
EXTD=1968\nColumbia\n\nThe original post 'Bluesbreakers' lineup
EXTT0=
EXTT1=
EXTT2=
EXTT3=
EXTT4=
EXTT5=
EXTT6=
EXTT7=
EXTT8=
EXTT9=
EXTT10=
EXTT11=
PLAYORDER=
